<?xml version="1.0" standalone="no"?>
<!DOCTYPE svg PUBLIC "-//W3C//DTD SVG 20010904//EN"
 "http://www.w3.org/TR/2001/REC-SVG-20010904/DTD/svg10.dtd">
<svg version="1.0" xmlns="http://www.w3.org/2000/svg"
 width="1819.000000pt" height="1810.000000pt" viewBox="0 0 1819.000000 1810.000000"
 preserveAspectRatio="xMidYMid meet">
<metadata>
Created by potrace 1.16, written by Peter Selinger 2001-2019
</metadata>
<g transform="translate(0.000000,1810.000000) scale(0.100000,-0.100000)"
fill="#000000" stroke="none">
<path d="M3873 12668 c14 -24 27 -56 31 -73 5 -25 2 -22 -16 14 -12 24 -30 46
-40 49 -10 2 -15 8 -12 13 12 20 -61 8 -92 -16 -18 -14 -37 -25 -43 -25 -6 0
-11 -4 -11 -9 0 -4 -13 -25 -29 -45 -17 -21 -28 -43 -25 -50 3 -7 -3 -19 -13
-27 -16 -13 -17 -12 -4 4 8 9 12 20 9 23 -3 3 -19 -12 -35 -33 -101 -128 -234
-448 -273 -656 -7 -37 -16 -70 -21 -73 -5 -3 -9 -1 -9 4 0 10 45 190 56 225 4
12 2 17 -4 13 -6 -3 -12 -3 -15 1 -2 5 -2 3 -1 -4 2 -6 -2 -13 -8 -15 -6 -2
-12 -23 -14 -47 -3 -43 -17 -71 -30 -59 -3 4 8 51 24 105 17 54 33 114 36 133
l6 35 -15 -30 c-8 -16 -14 -38 -15 -47 0 -10 -5 -18 -11 -18 -7 0 -8 7 -4 18
9 23 35 106 35 112 -1 3 -5 -2 -9 -10 -21 -35 -73 -208 -116 -385 -25 -104
-59 -245 -76 -311 -21 -86 -27 -128 -21 -145 l9 -24 7 23 c5 14 13 21 21 18 8
-3 16 0 18 7 3 7 3 -6 1 -28 -3 -34 0 -30 21 30 28 78 27 72 -17 -129 -16 -78
-34 -163 -39 -189 -4 -26 -11 -56 -14 -67 -3 -10 -8 -27 -10 -37 -2 -10 -9
-31 -15 -48 l-10 -30 4 30 c8 49 68 329 73 337 2 4 -3 5 -11 2 -9 -3 -14 -10
-11 -14 3 -5 -4 -30 -16 -57 -11 -26 -21 -61 -21 -76 -1 -19 -4 -24 -9 -15 -5
7 -7 20 -4 28 9 33 14 125 5 105 -8 -19 -9 -18 -10 5 -3 40 -71 -246 -135
-565 -8 -38 -28 -135 -45 -215 -17 -80 -40 -197 -51 -260 -11 -63 -26 -153
-34 -200 -27 -157 -85 -583 -105 -770 -10 -102 -26 -234 -35 -295 -73 -501
-86 -717 -89 -1435 -2 -593 1 -682 29 -709 10 -9 15 -11 11 -5 -3 7 0 14 8 17
9 4 19 -9 29 -41 13 -38 16 -42 16 -19 2 53 21 26 23 -30 l1 -58 7 60 c4 33 7
53 8 45 2 -13 3 -13 12 0 7 10 9 238 4 685 -6 726 -2 826 52 1295 13 118 31
274 39 345 8 72 21 184 29 250 8 66 18 145 21 175 14 121 47 353 70 485 14 77
33 192 44 255 27 155 122 615 159 770 17 69 58 240 91 380 34 140 67 278 75
305 8 28 26 95 41 150 33 121 77 255 116 353 73 184 206 384 288 434 20 12 39
27 43 32 12 17 41 -6 44 -35 1 -13 5 -37 8 -54 14 -76 33 -566 29 -757 -1 -21
3 -38 7 -38 5 0 10 -14 12 -32 2 -17 9 -34 17 -36 10 -3 11 -1 5 9 -9 15 -13
110 -4 104 3 -2 6 18 7 43 1 31 -1 41 -8 31 -5 -9 -9 -9 -9 -2 0 6 5 15 10 18
6 4 10 59 10 133 0 82 -4 122 -10 112 -6 -9 -9 18 -9 80 0 97 12 106 21 18 4
-31 2 -45 -5 -41 -6 4 -7 1 -1 -8 14 -22 16 -38 24 -139 6 -87 7 -90 10 -35 1
33 3 96 3 140 -1 44 1 72 4 63 6 -25 23 -22 23 4 0 12 3 19 6 16 3 -3 8 -91
10 -194 3 -104 7 -191 10 -194 11 -10 0 596 -12 665 -14 82 -42 157 -56 149
-5 -3 -18 2 -29 12 -10 9 -19 12 -19 6 0 -6 5 -14 10 -17 6 -3 10 -14 10 -23
0 -9 -13 1 -31 26 -39 54 -47 54 -16 0z"/>
<path d="M12178 12456 c-10 -7 -15 -16 -11 -19 3 -4 -1 -7 -11 -7 -9 0 -14 -4
-11 -10 3 -5 0 -10 -7 -10 -8 0 -34 -20 -58 -45 -24 -25 -50 -45 -58 -45 -7 0
-11 -4 -8 -9 3 -4 -4 -8 -16 -7 -27 1 -38 -34 -26 -84 14 -55 18 -91 10 -86
-4 2 -20 -13 -36 -35 -17 -21 -34 -39 -38 -39 -8 0 3 23 40 84 13 21 8 83 -8
100 -4 4 -11 -2 -15 -13 -4 -15 -12 -20 -24 -16 -17 5 -21 1 -111 -125 -22
-30 -59 -82 -84 -115 -113 -152 -311 -519 -426 -790 -109 -257 -231 -648 -290
-925 -7 -30 -20 -91 -30 -135 -22 -103 -47 -247 -60 -355 -29 -233 -40 -337
-38 -360 6 -82 -3 -161 -19 -178 -10 -10 -33 -35 -50 -55 -40 -45 -41 -41 -8
19 14 25 23 50 20 55 -4 5 -1 9 5 9 6 0 8 5 4 11 -4 7 -16 -3 -31 -27 -14 -22
-22 -31 -19 -22 18 51 17 53 -5 28 -18 -21 -21 -22 -15 -5 8 23 9 25 7 44 -1
11 -5 10 -21 -4 -11 -10 -20 -15 -20 -12 0 4 -21 -9 -47 -29 -26 -20 -85 -54
-130 -76 -46 -21 -83 -43 -83 -48 0 -10 22 -17 75 -23 30 -4 30 -4 -3 -6 -25
-1 -35 -6 -39 -21 -4 -15 -11 -19 -24 -15 -10 4 -27 1 -36 -5 -17 -11 -17 -11
0 -6 9 3 17 0 17 -6 0 -6 3 -9 6 -5 3 3 17 2 30 -3 16 -6 24 -6 24 1 0 6 5 7
10 4 6 -3 16 -3 23 2 6 4 20 9 30 10 26 4 66 33 47 34 -8 0 -4 5 9 10 13 5 26
7 29 4 3 -3 0 -5 -6 -5 -18 0 -14 -17 5 -24 10 -4 14 -4 11 -1 -8 8 50 59 77
68 17 6 18 5 5 -5 -8 -7 -22 -22 -30 -32 -32 -41 54 16 101 66 l46 50 6 -137
c4 -82 11 -143 18 -151 7 -8 13 -27 14 -42 4 -58 4 -59 15 -42 8 12 10 9 10
-13 0 -35 24 -32 27 4 2 22 2 22 -6 4 -6 -15 -9 -7 -8 29 0 28 -4 51 -9 53 -6
2 -8 20 -6 41 2 21 0 32 -5 26 -4 -7 -9 90 -10 215 -1 225 9 265 22 87 4 -50
10 -83 15 -76 4 7 6 29 3 49 -2 20 0 61 5 91 l10 55 1 -53 c0 -29 5 -51 10
-48 15 9 21 -21 21 -102 0 -106 11 -242 20 -242 4 0 5 12 3 28 -2 15 -6 108
-10 207 -10 322 55 818 157 1190 18 66 46 170 62 230 17 61 45 148 63 195 18
47 41 112 51 145 10 33 22 66 28 74 16 20 35 81 26 81 -5 0 -6 10 -4 23 4 21
4 21 -6 2 -6 -11 -20 -36 -31 -55 -19 -33 -20 -34 -14 -7 4 21 3 27 -6 21 -9
-5 -10 -2 -4 12 4 10 10 29 12 42 8 33 25 39 18 5 -3 -15 -2 -21 1 -13 4 8 11
23 16 34 8 14 7 17 -3 11 -9 -6 -10 -2 -6 16 4 13 7 28 7 32 0 5 4 6 9 2 14
-8 25 15 26 50 0 18 5 29 12 28 7 -2 10 3 7 11 -3 8 9 30 26 50 22 25 30 41
25 55 -4 13 1 27 14 40 25 25 26 31 7 31 -7 0 -26 -28 -41 -62 -15 -35 -42
-94 -60 -133 -96 -205 -231 -560 -255 -670 -12 -52 -60 -218 -66 -224 -33 -34
134 512 202 657 24 52 44 98 44 103 0 15 144 320 188 397 23 41 42 76 42 78 0
2 12 23 27 47 15 23 28 44 28 47 1 6 39 75 68 121 40 66 55 84 62 77 4 -4 -2
-19 -13 -35 -28 -40 -102 -165 -154 -258 -24 -44 -52 -92 -61 -106 -16 -24
-16 -27 -2 -33 11 -4 20 4 30 27 8 17 24 43 35 57 l20 25 -16 -40 c-9 -22 -20
-44 -24 -50 -4 -5 -11 -21 -15 -35 -4 -14 -20 -51 -36 -82 -15 -32 -24 -58
-20 -58 5 0 16 20 25 45 18 46 44 77 31 36 -14 -44 5 -18 55 77 29 53 62 111
74 127 13 17 39 59 60 95 21 36 57 92 82 125 24 33 68 94 96 135 28 41 57 78
64 83 7 4 11 14 8 22 -4 9 0 15 8 15 29 0 150 147 202 245 38 72 34 130 -6
101z"/>
<path d="M9859 12273 c-14 -16 -43 -62 -64 -103 -21 -41 -45 -84 -55 -95 -32
-37 -68 -109 -85 -170 -10 -33 -21 -65 -26 -71 -11 -13 -69 -183 -69 -198 0
-6 7 -2 15 8 17 23 20 14 5 -15 -7 -12 -7 -19 -1 -19 5 0 13 9 16 21 5 16 10
18 21 8 8 -6 14 -17 14 -24 0 -22 -41 -150 -61 -192 -12 -23 -18 -46 -15 -51
3 -5 -1 -15 -8 -22 -8 -6 -18 -25 -21 -41 -4 -16 -10 -31 -14 -34 -9 -5 1 49
17 101 8 27 7 30 -9 29 -11 -1 -24 -6 -29 -11 -6 -6 -26 -71 -45 -147 -20 -75
-46 -165 -59 -199 -26 -69 -136 -502 -162 -638 -9 -47 -17 -89 -18 -95 -2 -5
-6 -28 -10 -50 -13 -67 -17 -75 -36 -75 -22 0 -33 -25 -16 -39 7 -6 11 -23 8
-41 l-4 -30 -20 23 c-18 20 -19 20 -13 2 4 -11 10 -29 13 -40 4 -11 6 -58 5
-105 -2 -85 -2 -85 14 -52 18 37 39 38 36 1 -2 -13 -7 -71 -13 -129 -5 -58
-12 -123 -15 -145 -5 -34 -4 -37 5 -16 6 14 17 80 24 148 8 69 16 127 19 130
3 2 12 -6 20 -19 17 -26 34 -82 19 -59 -8 11 -11 9 -17 -8 -3 -11 -3 -26 1
-32 4 -7 3 -9 -3 -6 -6 4 -10 -21 -10 -64 0 -109 17 -89 32 36 4 28 10 57 15
65 9 15 12 10 163 -294 54 -110 116 -225 138 -257 82 -121 198 -164 304 -111
38 18 95 72 95 89 0 7 4 13 9 13 5 0 12 7 15 16 5 12 1 14 -16 8 -20 -6 -21
-5 -9 10 12 14 12 16 -3 10 -9 -3 -16 -10 -16 -15 0 -5 -7 -9 -16 -9 -8 0 -12
-5 -9 -10 4 -6 12 -7 18 -3 7 4 6 -1 -2 -10 -8 -10 -16 -15 -19 -12 -3 2 -20
-9 -38 -25 -42 -36 -106 -48 -155 -27 -84 35 -132 101 -258 357 -39 80 -86
175 -105 212 -18 37 -29 65 -24 62 4 -3 36 -60 69 -127 68 -137 83 -160 93
-150 4 4 5 1 1 -7 -8 -21 57 -152 112 -224 25 -33 50 -62 54 -64 4 -2 17 -12
29 -22 28 -24 79 -34 125 -26 67 13 49 26 -26 20 -65 -6 -72 -5 -66 9 4 10 2
17 -3 17 -6 0 -10 -5 -10 -11 0 -5 -5 -7 -10 -4 -6 4 -7 11 -4 17 5 7 2 8 -5
3 -15 -9 -71 41 -71 63 0 12 3 12 18 1 15 -13 16 -12 4 3 -8 10 -19 16 -25 15
-7 -1 -11 6 -11 15 1 10 -2 15 -7 13 -12 -8 -42 42 -35 60 3 8 0 14 -6 12 -6
-1 -13 4 -16 12 -3 9 0 11 8 6 9 -5 11 -4 6 4 -4 6 -12 8 -18 5 -6 -4 -9 -1
-6 7 3 8 -3 36 -14 63 -10 27 -17 50 -15 52 2 2 21 -29 42 -69 54 -100 78
-138 70 -109 -8 26 3 29 21 5 15 -20 18 -37 6 -29 -5 3 -9 -1 -9 -9 0 -8 6
-16 13 -19 8 -3 11 0 7 10 -3 7 -1 14 4 14 5 0 -30 80 -78 178 -48 97 -111
226 -141 287 -29 60 -72 138 -95 172 l-43 62 25 128 c60 316 107 504 190 773
31 102 73 239 92 305 81 276 182 579 235 705 36 84 105 200 119 200 6 0 8 4 4
9 -3 6 3 14 12 20 10 5 15 13 11 16 -8 9 -79 -55 -73 -65 3 -4 -2 -13 -10 -20
-8 -7 -12 -16 -9 -21 3 -5 -2 -12 -11 -15 -9 -4 -31 -37 -50 -75 -19 -37 -39
-70 -45 -74 -6 -3 -8 -11 -5 -16 4 -5 1 -9 -4 -9 -6 0 -11 2 -11 5 0 20 50
120 104 209 36 59 61 104 54 100 -7 -5 -9 0 -6 13 6 21 -13 26 -29 8 -4 -4 -2
-5 6 0 9 5 12 3 9 -6 -3 -8 -10 -14 -18 -14 -7 0 -19 -11 -28 -25 l-14 -25 21
25 22 25 -22 -42 c-11 -24 -25 -41 -29 -38 -5 3 -6 -3 -3 -13 3 -12 -10 -33
-36 -60 -23 -23 -43 -42 -46 -42 -7 0 105 212 123 233 8 9 13 17 10 17 -2 0
-16 -12 -29 -27z"/>
<path d="M12400 12280 c0 -14 13 -20 25 -10 7 6 21 4 41 -6 16 -9 30 -15 32
-15 11 3 19 -2 30 -19 11 -18 10 -19 -5 -11 -49 25 -74 31 -143 34 -41 3 -67
2 -57 0 9 -2 17 -9 17 -15 0 -6 13 -8 30 -6 17 3 33 1 36 -4 3 -4 -5 -8 -17
-8 -34 0 -19 -8 26 -14 22 -2 54 -9 71 -14 17 -6 43 -8 57 -5 19 4 28 -1 37
-16 6 -12 8 -25 5 -30 -3 -5 0 -11 5 -13 6 -2 13 -30 15 -63 l5 -60 -16 60
c-9 33 -16 68 -16 78 1 9 -4 15 -9 11 -5 -3 -8 0 -7 7 2 7 -6 15 -17 17 -15 3
-17 1 -9 -9 15 -19 38 -123 31 -140 -3 -8 -6 -2 -6 12 -2 50 -38 116 -73 130
-36 15 -164 17 -179 2 -6 -6 3 -8 23 -7 17 1 60 -5 94 -13 56 -14 63 -18 70
-47 4 -17 8 -165 10 -330 2 -194 6 -302 13 -309 8 -8 11 23 12 103 l2 115 8
-108 c9 -124 18 -151 20 -56 l2 64 7 -50 c9 -60 -8 -315 -22 -332 -7 -9 -7
-13 0 -13 6 0 7 -14 2 -37 -4 -21 -11 -64 -15 -95 -3 -32 -10 -58 -15 -58 -4
0 -10 -11 -12 -25 -3 -13 -1 -22 3 -19 5 3 9 12 9 21 0 9 3 14 6 11 3 -3 2
-23 -2 -43 -4 -22 -10 -32 -14 -25 -4 7 -6 -11 -5 -39 1 -28 -2 -48 -6 -45 -5
3 -9 -3 -9 -13 -1 -10 -7 -31 -15 -48 l-14 -30 5 35 c3 19 7 46 10 58 3 17 1
21 -7 16 -9 -5 -10 -2 -4 12 12 30 23 104 13 98 -4 -3 -8 -15 -8 -27 0 -33
-11 -67 -20 -62 -9 5 -22 -48 -40 -160 -14 -86 -33 -173 -71 -333 -24 -99 -28
-129 -20 -150 7 -17 10 -19 7 -6 -2 13 2 21 10 21 8 0 14 -11 14 -26 0 -21 2
-23 10 -11 13 21 12 3 -3 -48 -7 -23 -16 -40 -19 -36 -9 8 -22 -42 -14 -54 3
-5 -6 -36 -20 -68 -14 -33 -22 -45 -18 -29 13 63 15 125 4 142 -9 16 -10 15
-4 -6 4 -15 2 -21 -4 -17 -7 4 -16 -11 -22 -36 -7 -24 -27 -90 -45 -148 -18
-58 -38 -127 -45 -155 -40 -160 -179 -518 -267 -690 -9 -16 -36 -70 -61 -120
-24 -49 -47 -92 -51 -95 -3 -3 -19 -25 -35 -49 -39 -61 -151 -169 -192 -186
-19 -8 -34 -19 -34 -26 0 -8 5 -7 18 2 15 13 16 12 3 -3 -10 -13 -18 -15 -31
-8 -13 7 -21 6 -26 -2 -4 -7 -3 -8 4 -4 7 4 12 3 12 -3 0 -25 -133 -36 -190
-16 -23 8 -52 15 -64 14 -11 0 4 -9 34 -20 86 -32 190 -23 280 23 73 38 87 40
44 6 -36 -29 -22 -34 17 -6 48 34 70 58 64 68 -3 5 0 12 6 16 7 4 9 3 6 -2 -3
-6 -1 -16 4 -24 7 -12 11 -13 18 -2 7 11 9 10 14 -3 4 -9 3 -13 -3 -10 -6 3
-10 -1 -10 -10 0 -10 5 -13 13 -9 8 5 8 3 -2 -9 -15 -19 -35 -12 -27 9 3 7 0
16 -7 20 -7 4 -9 4 -5 -1 4 -4 0 -14 -10 -21 -16 -13 -16 -13 1 -14 15 0 16
-3 7 -21 -10 -18 -9 -19 7 -11 67 37 209 200 228 262 4 14 15 39 25 55 49 80
109 214 205 450 99 246 263 811 341 1175 108 509 142 820 147 1365 2 202 0
238 -17 293 -18 57 -24 65 -73 98 -40 26 -58 33 -66 25 -7 -7 -15 -7 -22 -1
-15 12 -75 20 -75 10z m211 -546 c1 -131 -2 -268 -5 -304 -30 -286 -61 -520
-73 -543 -7 -15 -11 -32 -8 -37 6 -10 -22 -210 -31 -219 -7 -8 -4 34 7 90 5
30 12 77 14 104 3 28 9 70 14 95 6 25 15 86 21 135 5 50 17 148 25 218 9 71
17 244 19 385 5 321 5 326 11 321 2 -3 5 -113 6 -245z m-304 -1866 c-19 -85
-51 -188 -77 -255 -18 -43 -39 -100 -47 -128 -8 -27 -18 -54 -21 -60 -4 -5
-19 -46 -35 -90 -71 -199 -174 -422 -206 -448 -12 -10 -13 -9 -6 3 6 8 10 17
10 20 1 3 23 50 49 105 111 231 257 618 301 803 10 39 22 72 28 72 5 0 7 -10
4 -22z"/>
<path d="M8762 11900 c-34 -32 -46 -93 -43 -230 2 -176 28 -502 46 -585 8 -38
24 -133 36 -210 11 -77 29 -180 40 -230 10 -49 25 -133 33 -185 9 -52 22 -135
31 -185 8 -49 22 -157 30 -240 8 -82 21 -202 30 -265 17 -139 35 -318 41 -420
3 -41 9 -122 15 -180 8 -81 19 -366 19 -492 0 -23 26 -23 26 0 1 9 4 40 7 67
12 93 18 371 7 355 -7 -11 -10 2 -10 45 0 41 3 55 10 45 13 -21 17 -12 23 55
8 83 -4 315 -15 290 -11 -28 1 90 14 138 10 33 1 191 -17 312 -2 11 -9 76 -15
145 -6 69 -20 170 -30 225 -11 55 -26 145 -35 200 -9 55 -25 143 -36 195 -11
52 -24 133 -29 180 -5 47 -14 108 -20 135 -23 106 -40 310 -39 460 1 106 -10
183 -43 305 -26 94 -38 105 -76 70z m45 -742 c1 -11 33 -176 47 -238 2 -8 7
-40 11 -70 4 -30 13 -85 21 -123 8 -37 16 -84 19 -105 2 -20 19 -118 36 -217
39 -230 46 -273 53 -370 4 -44 8 -97 10 -118 3 -20 1 -35 -3 -33 -4 3 -13 58
-20 123 -7 65 -14 132 -16 148 -2 17 -13 77 -24 135 -11 58 -23 132 -26 165
-3 33 -11 83 -16 110 -5 28 -11 64 -13 80 -3 17 -10 53 -16 80 -6 28 -20 100
-30 160 -11 61 -24 126 -29 145 -16 57 -24 140 -14 140 5 0 10 -6 10 -12z"/>
<path d="M3882 11381 c-1 -130 -7 -373 -12 -541 -5 -168 -12 -447 -15 -620 -3
-173 -9 -526 -15 -785 -9 -458 -24 -1865 -21 -2055 2 -131 9 -169 38 -212 22
-32 31 -38 62 -38 49 1 114 31 138 66 25 36 38 74 24 74 -5 0 -13 -9 -16 -21
-4 -11 -12 -18 -17 -17 -6 2 -21 -6 -34 -19 -13 -13 -30 -23 -39 -23 -8 0 -24
-6 -36 -12 -17 -11 -22 -10 -39 12 -10 14 -23 43 -29 65 -15 61 -23 282 -13
360 l10 70 0 -105 c0 -58 3 -155 7 -217 6 -94 11 -118 32 -150 18 -29 23 -32
18 -13 -4 14 -8 50 -9 80 -2 30 -6 66 -9 80 -5 17 -2 15 8 -7 8 -18 20 -33 26
-33 6 0 8 -8 4 -19 -3 -11 -2 -22 3 -25 16 -10 21 62 16 239 -12 471 -4 2423
11 2590 3 28 7 160 11 295 3 134 7 247 10 251 7 13 4 476 -4 564 l-9 90 -3
-110 -3 -110 -11 58 c-6 33 -15 55 -20 50 -4 -4 -5 11 -1 36 5 31 4 42 -4 37
-7 -5 -11 -45 -11 -108 0 -56 -2 -99 -5 -96 -3 3 -7 102 -9 219 -5 279 -8 328
-21 332 -7 3 -11 -73 -13 -232z"/>
<path d="M13344 11407 c-86 -92 -96 -106 -89 -128 4 -11 2 -19 -5 -19 -6 0 -8
6 -5 13 6 10 -25 -22 -56 -60 -9 -12 -4 -17 14 -14 4 0 7 -3 7 -9 0 -5 -10 -9
-22 -7 -18 2 -30 -14 -74 -103 -83 -168 -120 -389 -109 -655 8 -213 27 -337
85 -559 41 -158 46 -185 33 -191 -9 -3 -13 -8 -9 -12 3 -4 12 -1 18 5 16 16
35 15 35 -2 0 -8 -6 -12 -14 -9 -8 3 -13 0 -11 -6 2 -6 -15 -22 -38 -35 -28
-17 -41 -21 -41 -12 0 7 5 13 11 12 6 0 12 3 13 9 1 5 10 12 20 16 14 6 12 8
-10 8 -39 1 -140 -44 -203 -89 -93 -69 -213 -228 -214 -285 -1 -11 -7 -37 -14
-58 -11 -28 -11 -35 -2 -27 7 5 16 6 20 2 4 -4 7 -2 5 3 -4 15 41 109 48 101
4 -3 18 1 32 11 l26 16 -19 -21 c-20 -23 -9 -31 13 -9 10 10 11 8 5 -8 -6 -18
-5 -18 19 4 15 13 24 27 22 31 -6 10 65 80 81 80 6 0 16 11 22 24 6 14 21 30
34 37 21 11 22 11 9 -5 -8 -9 -12 -19 -9 -22 6 -5 100 47 128 71 8 7 26 15 40
18 26 6 26 6 38 -96 7 -56 12 -117 12 -135 0 -20 6 -35 15 -38 10 -4 15 -18
14 -43 l-2 -36 -7 35 c-6 28 -7 23 -6 -27 0 -33 4 -56 8 -50 5 7 8 3 8 -10 0
-13 -4 -23 -10 -23 -5 0 -10 -12 -10 -27 0 -29 -9 -70 -37 -163 -30 -103 -113
-212 -188 -247 -27 -12 -59 -23 -71 -23 -34 0 -94 79 -94 124 0 14 -4 36 -9
50 -6 13 -11 84 -12 158 -2 126 0 138 30 228 18 52 40 103 49 114 16 18 16 18
-6 5 -13 -8 -32 -34 -43 -59 -34 -77 -42 -89 -51 -84 -5 3 -8 2 -6 -3 1 -4 -4
-28 -11 -53 -7 -25 -13 -72 -14 -105 0 -55 -1 -57 -7 -20 l-7 40 -2 -42 c0
-24 -5 -43 -11 -43 -6 0 -9 -27 -9 -62 1 -53 3 -58 10 -33 7 26 8 25 4 -10 -2
-22 2 -66 9 -98 17 -71 8 -66 -16 11 -19 59 -39 278 -33 354 3 34 1 30 -8 -17
-12 -53 -14 -57 -22 -35 -14 39 -18 -107 -6 -206 20 -162 77 -280 164 -336 44
-28 60 -33 112 -33 161 2 313 150 395 385 22 61 28 190 9 190 -6 0 -8 -7 -5
-16 4 -10 2 -13 -6 -8 -7 5 -9 2 -6 -8 4 -8 3 -30 -1 -49 l-7 -34 -8 48 c-4
27 -12 45 -17 41 -5 -3 -7 -14 -4 -23 3 -10 1 -29 -4 -42 -5 -13 -10 -18 -10
-11 -1 6 -6 11 -11 10 -7 -2 -12 83 -14 252 -2 140 -7 273 -10 295 -5 30 -4
35 3 18 5 -12 15 -83 21 -159 6 -76 13 -141 17 -144 6 -5 -4 209 -13 277 -6
40 -4 43 22 53 21 8 29 8 36 -2 6 -10 8 -9 8 4 0 12 11 19 38 23 20 3 89 16
152 30 63 13 126 26 140 28 14 2 32 7 41 11 13 6 19 -3 29 -41 24 -90 81 -228
118 -283 93 -140 261 -318 362 -384 25 -17 61 -44 80 -62 66 -60 455 -284 492
-284 9 0 9 3 -2 10 -8 5 -15 14 -15 21 0 6 -44 35 -97 64 -91 49 -141 85 -121
85 5 0 14 -5 19 -10 14 -14 248 -130 252 -125 2 2 -46 31 -107 65 -61 34 -111
63 -111 65 0 7 41 -8 46 -16 7 -12 24 -11 24 0 0 6 -28 26 -62 45 -101 58 -58
41 67 -25 118 -62 161 -76 58 -18 -32 17 -81 47 -110 65 -28 19 -56 34 -61 34
-6 0 -12 4 -14 9 -1 5 -31 26 -64 47 -178 112 -352 271 -467 424 -62 82 -78
113 -119 229 -51 141 -56 159 -57 204 -1 15 -6 27 -11 27 -6 0 -8 -13 -5 -29
3 -17 0 -33 -6 -37 -8 -4 -7 -9 2 -16 11 -8 11 -9 -1 -5 -10 2 -14 13 -12 29
2 15 -1 28 -5 31 -5 3 -10 -6 -11 -20 -3 -37 -12 -42 -13 -7 0 16 -4 38 -9 49
-6 15 -9 8 -9 -28 -1 -46 21 -158 40 -204 5 -13 13 -33 18 -45 63 -155 113
-229 244 -365 22 -23 33 -41 25 -39 -14 2 -108 98 -138 142 -80 115 -99 146
-119 194 -13 30 -31 71 -39 90 -39 91 -53 182 -56 370 -1 102 0 158 3 125 l6
-60 8 85 c13 143 71 430 104 513 21 51 27 42 9 -14 -41 -127 -97 -425 -95
-499 1 -26 3 -29 6 -10 33 202 46 266 56 272 9 6 8 8 -2 8 -8 0 -11 6 -6 18 3
9 11 42 17 72 5 30 18 63 29 73 10 9 23 36 29 60 5 23 14 54 18 68 8 23 7 26
-12 24 -20 -3 -18 4 24 86 25 48 55 101 68 116 22 27 22 26 -2 -12 -24 -42
-86 -162 -86 -168 0 -2 7 -4 16 -4 18 0 48 53 38 69 -4 6 -3 8 3 5 6 -4 16 7
23 23 7 17 16 33 20 35 13 8 -25 -90 -50 -130 -12 -20 -20 -38 -17 -41 2 -3
17 16 31 41 15 25 29 45 31 45 9 0 -17 -59 -31 -71 -8 -6 -14 -18 -14 -25 0
-34 22 -6 75 94 50 94 133 212 179 253 92 83 191 146 241 153 22 4 64 11 93
17 30 6 56 8 59 5 11 -11 2 -167 -12 -205 -7 -22 -9 -44 -5 -51 6 -9 11 -2 15
23 4 20 12 37 17 37 5 0 7 -8 4 -18 -3 -9 -8 -40 -12 -67 -3 -27 -10 -58 -16
-70 -8 -14 -7 -17 0 -10 6 6 20 37 31 70 12 36 18 46 15 25 -8 -44 -84 -231
-93 -226 -3 2 -7 -9 -8 -25 -1 -17 -11 -42 -21 -57 -11 -15 -23 -38 -26 -52
-15 -53 88 146 131 253 9 21 17 36 19 34 6 -6 -65 -173 -135 -319 -34 -70 -61
-129 -61 -132 0 -6 23 -2 38 8 28 17 166 312 216 461 46 135 74 283 63 326
-16 61 -44 87 -114 109 -72 23 -198 29 -217 10 -5 -5 -18 -10 -28 -10 -16 0
-22 -10 -19 -32 0 -6 -53 -28 -68 -28 -3 0 5 10 19 23 14 12 21 19 15 15 -5
-3 -44 -23 -85 -44 -92 -45 -153 -95 -211 -171 -24 -32 -46 -60 -49 -63 -18
-16 -91 -137 -127 -210 -59 -117 -98 -234 -127 -375 -21 -101 -43 -273 -40
-310 12 -150 13 -188 4 -175 -7 11 -10 -14 -10 -83 0 -64 -4 -96 -10 -92 -6 4
-7 11 -4 17 12 19 -47 -1 -136 -47 -84 -42 -165 -71 -155 -55 3 5 28 16 56 25
27 9 90 38 139 64 l89 47 -30 11 c-20 8 -27 8 -22 0 4 -7 0 -8 -11 -4 -9 4
-15 3 -12 -1 3 -5 -11 -14 -29 -21 -26 -9 -39 -9 -52 -1 -12 8 -13 10 -3 7 8
-2 23 5 33 15 17 18 10 26 -8 9 -6 -5 -48 -12 -93 -15 -94 -7 -111 -10 -196
-37 -33 -11 -63 -16 -67 -12 -8 8 -48 158 -54 203 -2 14 -11 48 -19 75 -18 59
-20 75 -6 75 6 0 10 -12 10 -27 0 -16 10 -55 21 -88 11 -33 22 -72 24 -87 7
-56 29 -139 37 -144 10 -7 10 3 -2 46 -5 19 -11 51 -14 70 -2 19 -13 75 -25
123 -29 121 -26 127 14 22 36 -97 43 -102 20 -15 -8 30 -14 62 -14 70 0 8 11
-23 24 -69 24 -82 35 -108 35 -80 0 8 -11 64 -25 124 -36 161 -35 158 -45 315
-14 233 5 453 52 595 37 112 40 125 26 125 -6 0 -2 12 7 28 l18 27 -25 -23
c-22 -20 -26 -21 -32 -7 -4 11 -2 14 6 9 8 -5 9 -2 5 11 -4 9 -2 24 5 33 11
13 10 14 -7 4 -23 -12 -50 -42 -57 -63 -3 -9 -6 -9 -11 4 -3 9 -2 17 3 17 6 0
10 10 10 22 0 12 8 30 18 41 10 12 11 17 3 12 -10 -5 -12 -4 -7 3 4 7 13 12
20 12 7 0 25 17 39 38 13 20 59 75 101 121 42 46 75 90 72 97 -3 8 0 11 9 8 9
-4 13 1 12 15 -2 34 -20 25 -83 -42z"/>
<path d="M7405 11158 c-11 -6 -22 -15 -25 -19 -10 -15 -58 -18 -64 -4 -7 19
-57 2 -105 -34 -55 -42 -123 -132 -118 -157 2 -15 0 -21 -9 -17 -7 3 -11 -2
-10 -12 1 -8 5 -15 9 -15 4 0 12 0 17 0 6 0 10 6 10 13 0 16 89 116 90 100 0
-6 -4 -13 -8 -15 -17 -7 -52 -77 -46 -92 5 -13 12 -8 34 21 40 56 105 110 147
124 20 6 51 21 70 31 18 11 33 15 33 10 0 -6 -12 -15 -27 -20 -17 -6 -21 -11
-11 -11 37 -2 82 30 61 42 -5 2 -2 2 5 0 8 -1 20 -3 29 -3 12 0 12 -2 1 -13
-7 -7 -24 -17 -38 -24 l-25 -11 27 2 c15 0 30 7 33 14 2 6 9 12 15 12 6 0 8
-4 5 -10 -7 -12 2 -12 30 0 19 8 19 9 1 9 -20 1 -20 1 0 16 18 13 18 14 -6 9
l-25 -6 25 21 c24 20 25 21 3 21 -12 0 -29 3 -39 7 -11 4 -15 2 -11 -4 4 -7
-7 -9 -31 -8 -56 4 -59 5 -33 16 17 7 27 6 32 -2 5 -9 13 -7 30 5 23 16 23 16
-16 16 -22 0 -49 -6 -60 -12z"/>
<path d="M10083 10918 c-13 -6 -26 -20 -30 -32 -8 -24 -5 -540 4 -661 3 -44 9
-81 14 -83 4 -2 6 -9 3 -17 -9 -23 15 -26 27 -3 14 26 13 208 -1 208 -3 0 -7
15 -8 32 -4 44 16 24 22 -22 2 -19 7 -46 10 -60 3 -14 8 -85 11 -158 3 -74 8
-139 11 -145 5 -9 4 -9 -5 -1 -7 6 -16 33 -20 60 -5 27 -9 38 -10 24 -2 -25
-2 -25 -17 5 -11 22 -13 24 -10 8 2 -13 0 -23 -5 -23 -5 0 -12 19 -16 43 l-7
42 -7 -35 c-5 -19 -11 -91 -14 -160 -4 -69 -13 -146 -21 -171 -8 -25 -16 -60
-17 -77 -1 -18 -6 -32 -11 -32 -4 0 -6 -7 -3 -15 4 -8 2 -17 -2 -20 -5 -3 -15
-29 -21 -57 -7 -29 -19 -65 -26 -80 -10 -20 -11 -29 -2 -34 16 -10 38 24 38
59 0 16 4 26 10 22 6 -4 7 -12 3 -18 -4 -7 0 -6 10 2 9 7 15 17 12 21 -3 5 -1
19 5 32 8 20 9 18 5 -12 -4 -44 -10 -61 -48 -138 -16 -34 -35 -61 -41 -59 -6
3 -9 11 -7 18 2 8 4 19 5 24 1 6 6 17 11 25 8 13 7 13 -8 1 -9 -7 -17 -19 -17
-25 0 -6 -15 -28 -34 -49 -19 -22 -41 -52 -49 -69 -8 -16 -17 -29 -21 -29 -12
2 -8 -13 6 -23 9 -5 24 -6 34 -1 11 5 21 9 24 9 3 1 12 5 20 11 13 8 13 7 1
-8 -7 -9 -17 -14 -22 -11 -5 3 -9 0 -9 -5 0 -16 16 -13 30 4 7 8 17 12 24 8 6
-4 5 1 -3 10 -12 16 -11 21 14 47 16 17 25 30 19 30 -5 0 -5 4 1 8 11 8 26 30
55 85 12 21 24 35 29 33 4 -3 7 9 6 26 l-2 31 19 -23 c12 -15 15 -26 9 -28 -6
-2 -11 -11 -11 -19 0 -13 3 -13 16 -2 20 16 30 43 53 132 l18 68 23 -113 c36
-181 46 -230 60 -278 11 -40 13 -43 25 -27 10 14 14 15 19 5 7 -16 1 23 -12
75 -7 26 -7 39 2 44 6 3 8 3 4 -2 -4 -4 -1 -17 7 -29 8 -11 15 -29 15 -39 0
-10 9 -37 19 -60 10 -23 25 -61 32 -84 6 -24 18 -43 26 -43 16 0 17 16 2 25
-6 4 -8 13 -5 21 3 7 1 16 -4 19 -12 8 -13 65 -2 65 5 0 14 -10 20 -22 16 -33
6 53 -19 162 -11 47 -23 96 -26 110 -3 14 -7 34 -8 45 -5 38 -27 151 -46 242
-10 50 -19 113 -20 140 0 26 -8 79 -18 117 -10 37 -19 100 -20 140 -1 39 -6
103 -11 141 -12 87 -13 172 -2 179 13 8 15 342 2 383 -23 69 -60 89 -117 61z"/>
<path d="M4614 10867 c-27 -19 -62 -54 -77 -79 -72 -115 -140 -393 -202 -816
-8 -57 -17 -106 -19 -110 -2 -4 -7 -36 -11 -72 -3 -36 -9 -83 -11 -104 -24
-203 -44 -407 -44 -444 0 -25 -4 -82 -10 -126 -5 -45 -14 -135 -20 -201 -6
-66 -15 -158 -20 -205 -11 -98 -29 -272 -35 -345 -3 -27 -9 -79 -15 -115 -5
-36 -12 -94 -16 -130 -13 -139 -54 -382 -84 -508 -11 -44 -14 -75 -8 -78 5 -4
7 -18 4 -33 -6 -30 1 -16 28 54 l15 40 2 -35 1 -35 13 40 c16 48 19 26 4 -27
-5 -21 -14 -38 -19 -38 -6 0 -10 -9 -10 -20 0 -11 7 -20 15 -20 8 0 15 1 15 3
0 1 9 27 20 57 11 30 23 87 26 125 3 39 8 72 10 74 14 15 14 -22 0 -120 -11
-72 -13 -116 -7 -122 13 -13 40 95 66 263 7 52 20 140 29 195 8 55 17 132 21
170 3 39 10 106 15 150 32 276 65 587 85 820 9 99 20 225 26 280 6 55 17 165
24 244 8 79 17 152 20 161 3 9 14 76 24 150 29 200 69 414 96 510 34 124 91
275 99 262 11 -19 35 -203 45 -345 4 -77 13 -143 20 -150 8 -8 11 -6 12 9 1
15 3 14 9 -6 6 -18 9 -4 10 50 3 107 0 154 -11 164 -5 6 -9 24 -8 40 l0 31 15
-39 c17 -46 25 -124 29 -276 1 -63 3 -122 5 -130 4 -25 18 41 19 92 1 36 4 46
15 42 7 -3 13 -13 13 -22 0 -9 1 -26 2 -37 2 -18 3 -18 9 -3 12 29 6 270 -8
327 -7 29 -10 77 -7 105 3 29 0 60 -5 70 -7 12 -7 16 -1 13 6 -4 5 16 -2 51
-20 85 -35 131 -45 137 -6 4 -10 15 -10 26 0 30 -44 69 -78 69 -17 0 -50 -14
-78 -33z"/>
<path d="M8052 10864 c-38 -26 -41 -51 -21 -169 10 -60 18 -137 19 -170 0 -33
14 -139 31 -235 17 -96 33 -188 35 -205 2 -16 8 -50 14 -75 5 -25 14 -74 20
-109 6 -35 23 -102 37 -150 13 -47 26 -99 29 -114 2 -16 12 -53 24 -83 11 -30
20 -63 20 -74 0 -10 6 -25 13 -32 6 -7 13 -22 15 -33 10 -76 81 -255 101 -255
11 0 -4 59 -19 74 -5 5 -10 14 -10 20 0 5 9 -1 20 -14 11 -13 20 -28 20 -33 0
-6 3 -8 6 -5 3 3 -3 23 -14 45 -11 21 -27 67 -37 103 -9 36 -28 100 -42 143
-31 98 -26 111 7 17 13 -39 28 -70 31 -70 4 0 11 -9 14 -21 4 -11 9 -19 11
-16 3 2 0 16 -5 30 -11 27 -3 41 16 29 15 -10 45 -71 39 -80 -3 -4 -1 -14 5
-22 7 -13 9 -13 9 0 1 8 10 -9 21 -37 11 -29 24 -53 29 -53 5 0 -2 24 -14 53
-25 55 -51 137 -115 357 -74 251 -131 546 -152 775 -4 55 -11 118 -13 140 -3
22 -8 60 -11 85 -14 108 -30 162 -54 181 -29 23 -49 24 -79 3z"/>
<path d="M7162 10845 c-26 -58 -67 -248 -80 -375 -3 -30 -5 -189 -5 -353 -1
-163 -4 -292 -8 -285 -4 6 -8 104 -9 217 0 172 -3 208 -16 221 -14 14 -15 4
-14 -100 1 -63 1 -142 0 -175 -2 -56 -3 -58 -11 -25 -4 19 -8 118 -8 219 0
101 -3 186 -6 189 -3 3 -5 -17 -6 -44 l-1 -49 -13 30 c-12 26 -14 -36 -15
-460 -1 -269 -1 -509 0 -532 1 -25 -3 -43 -9 -43 -6 0 -11 -12 -12 -27 0 -25
-1 -25 -8 -8 -5 11 -9 24 -9 29 0 13 -30 28 -42 21 -6 -4 -10 8 -10 27 0 18
-7 42 -15 52 -13 17 -15 18 -15 3 0 -9 5 -17 10 -17 7 0 7 -6 1 -19 -6 -10
-12 -59 -15 -109 -2 -50 -7 -96 -11 -102 -4 -6 -4 -44 -1 -85 3 -41 2 -76 -4
-80 -5 -3 -7 -15 -4 -28 6 -28 -15 -236 -27 -262 -8 -18 -6 62 6 190 12 138
16 297 7 291 -5 -3 -13 -35 -17 -71 -3 -36 -11 -65 -16 -65 -6 0 -8 10 -4 23
5 19 4 20 -5 4 -6 -9 -8 -22 -5 -27 9 -15 -6 -101 -16 -94 -5 3 -7 10 -3 15 3
5 7 89 9 187 2 107 0 163 -5 142 -5 -19 -10 -78 -11 -130 -2 -52 -6 -113 -10
-135 -4 -22 -12 -89 -18 -150 -6 -60 -13 -121 -15 -135 -4 -23 -20 -149 -30
-230 -8 -70 -57 -286 -76 -337 -54 -143 -65 -166 -87 -180 -13 -9 -30 -28 -38
-43 -15 -28 -51 -45 -61 -29 -3 5 -16 9 -29 9 -14 0 -50 11 -81 25 -62 28 -89
32 -78 13 4 -8 3 -10 -2 -5 -5 5 -9 12 -9 17 0 4 -15 24 -33 44 -18 20 -31 37
-30 38 1 2 -10 21 -25 43 -15 22 -27 35 -27 30 0 -6 -7 3 -15 18 -10 19 -11
35 -5 50 19 48 90 285 99 332 6 28 21 106 35 175 14 69 29 154 35 190 6 36 13
82 16 103 3 21 10 86 15 145 5 59 12 132 15 162 12 113 20 384 20 655 0 260
-1 283 -20 318 -22 44 -77 77 -127 77 -50 -1 -150 -83 -133 -110 4 -6 15 -4
29 5 21 14 24 14 30 -1 6 -15 10 -14 34 9 28 27 92 38 92 17 0 -6 -10 -8 -24
-4 -31 7 -57 -7 -79 -44 -16 -29 -16 -30 2 -25 12 3 26 -5 41 -24 20 -26 21
-34 15 -108 -4 -44 -9 -195 -11 -335 -5 -428 -24 -650 -74 -895 -10 -49 -24
-124 -30 -165 -10 -64 -65 -267 -76 -279 -8 -9 -16 10 -51 110 -19 57 -38 138
-43 179 -8 75 -4 514 5 559 2 14 7 61 10 105 11 165 68 415 140 616 15 41 31
88 36 104 l9 29 -21 -22 c-28 -29 -34 -21 -14 18 9 19 11 31 5 31 -6 0 -8 6
-4 13 4 6 -8 -1 -26 -18 -35 -32 -33 -21 7 33 28 38 26 39 -27 11 -27 -14 -39
-27 -36 -36 3 -8 2 -12 -3 -8 -13 8 -66 -90 -86 -160 -10 -33 -28 -94 -41
-135 -68 -218 -102 -487 -109 -850 -4 -222 -2 -268 15 -355 28 -149 43 -198
103 -338 l55 -127 -23 -43 c-74 -140 -129 -197 -191 -197 -26 0 -78 67 -89
116 -4 16 -18 60 -31 98 -13 38 -24 80 -24 93 0 13 -7 58 -16 99 -8 42 -19
108 -24 147 -5 40 -16 115 -24 167 -24 144 -65 448 -72 530 -2 25 -11 108 -20
185 -9 77 -20 183 -25 235 -5 52 -10 109 -12 125 -2 17 -4 44 -5 60 -2 26 -4
27 -13 13 -20 -35 -31 -19 -24 35 9 72 11 192 3 252 -3 28 -10 79 -14 115 -9
87 -36 162 -78 218 -54 74 -70 85 -121 84 -49 0 -87 -24 -116 -72 -22 -35 -50
-126 -42 -134 4 -3 1 -6 -5 -6 -7 0 -11 -3 -11 -7 3 -19 -2 -36 -8 -29 -10 10
-41 -94 -63 -214 -34 -182 -60 -354 -60 -392 0 -20 -4 -40 -10 -43 -5 -3 -7
-25 -4 -49 4 -27 2 -46 -5 -50 -7 -5 -11 2 -11 18 0 13 -5 26 -12 28 -6 2 -11
18 -10 36 0 18 -3 32 -8 32 -4 0 -9 -60 -9 -132 -1 -73 -3 -235 -6 -360 -3
-141 -2 -228 4 -228 17 0 21 31 25 195 8 282 19 401 35 391 10 -7 31 69 32
116 0 18 4 42 9 53 5 13 7 -5 4 -48 -3 -45 -1 -66 6 -62 5 3 10 18 11 33 0 15
4 36 9 47 7 15 9 12 5 -15 -2 -19 -6 -69 -9 -110 l-5 -75 14 55 c7 30 17 75
22 100 6 32 9 -8 10 -139 1 -101 4 -186 7 -189 4 -3 7 17 7 44 1 27 3 58 4 69
1 11 8 70 14 130 7 61 19 157 27 215 8 58 16 123 18 145 13 127 82 365 131
456 8 14 12 29 9 32 -3 3 3 3 15 0 22 -6 26 -16 36 -78 4 -22 9 -53 11 -70 4
-23 3 -27 -6 -15 -8 11 -9 7 -5 -20 4 -19 10 -37 14 -40 4 -3 11 -23 15 -45 4
-22 8 -45 9 -50 3 -12 48 -78 59 -85 35 -25 50 -166 23 -223 -8 -18 -16 -50
-18 -72 -2 -28 -4 -20 -5 25 -1 36 -7 72 -12 80 -8 11 -9 7 -4 -15 4 -22 3
-26 -4 -16 -14 20 -19 -43 -10 -139 20 -223 39 -414 48 -480 6 -41 15 -115 20
-165 5 -49 18 -153 30 -230 11 -77 30 -212 41 -300 11 -88 34 -216 51 -285 48
-196 100 -284 193 -325 45 -20 59 -21 110 -13 94 14 144 51 224 162 l54 74 50
-55 c75 -81 204 -161 267 -165 14 -1 41 -1 60 1 29 2 32 4 15 11 -17 7 -16 9
10 10 17 2 37 1 45 0 8 -1 12 1 9 5 -6 5 -60 14 -106 17 -7 1 -13 5 -13 10 0
4 -3 7 -7 6 -12 -4 -156 53 -174 68 -9 8 -19 11 -24 7 -4 -5 -5 -2 -1 5 6 10
11 10 22 1 8 -6 14 -8 14 -4 0 4 11 0 23 -8 62 -40 259 -88 273 -66 3 5 10 9
15 9 6 0 8 -4 4 -9 -3 -5 0 -13 5 -16 13 -8 52 24 45 36 -3 4 0 11 6 15 8 5
10 -1 7 -20 -6 -30 -6 -31 31 -11 42 21 73 62 119 156 58 121 115 340 127 494
4 44 11 96 15 115 8 31 20 132 35 290 2 30 9 96 15 145 5 50 10 121 10 158 0
43 4 66 10 62 6 -3 10 -21 10 -38 0 -34 43 -251 60 -302 14 -42 67 -309 75
-375 8 -69 45 -232 56 -244 4 -5 6 6 4 24 -3 18 -1 38 3 44 10 17 11 37 1 30
-5 -3 -6 -10 -3 -16 4 -6 2 -8 -4 -5 -5 4 -8 16 -5 27 3 11 9 17 14 14 5 -3 9
3 9 13 1 12 5 8 15 -12 11 -24 14 -26 15 -10 3 34 23 -45 24 -96 2 -70 26 -52
26 20 1 52 2 54 14 32 20 -36 29 -9 17 52 -6 28 -13 70 -17 92 -3 22 -12 63
-19 90 -53 192 -81 682 -78 1385 1 363 4 463 18 545 9 55 21 127 26 160 5 33
16 81 24 107 18 55 18 61 5 53 -6 -3 -15 -26 -21 -51 -6 -25 -14 -43 -17 -40
-2 3 3 28 12 57 18 55 17 76 -2 34z"/>
<path d="M7967 10691 c-28 -16 -76 -81 -60 -81 4 0 1 -5 -7 -10 -8 -5 -10 -10
-3 -10 7 0 9 -9 5 -22 -4 -19 2 -15 32 17 39 42 39 32 -1 -21 -13 -17 -23 -39
-23 -48 0 -9 -7 -30 -15 -46 -12 -23 -12 -30 -2 -36 6 -4 9 -4 5 1 -8 9 45 65
61 65 6 0 11 5 11 12 0 6 2 9 5 6 3 -3 1 -17 -4 -32 -6 -14 -7 -26 -2 -26 14
0 43 70 37 87 -4 9 -1 22 6 31 10 12 10 16 1 19 -7 3 -13 18 -13 34 0 18 -4
28 -10 24 -14 -9 -13 18 2 33 19 19 5 21 -25 3z"/>
<path d="M14330 10375 c-12 -19 -27 -41 -34 -48 -6 -6 -47 -58 -90 -114 -74
-97 -177 -203 -197 -203 -5 0 -9 -6 -9 -13 0 -18 -59 -64 -132 -102 -38 -20
-53 -43 -20 -30 25 9 180 104 203 123 21 18 26 38 7 26 -7 -4 -8 -3 -4 4 4 6
13 9 20 6 7 -3 19 2 26 11 10 12 10 15 0 15 -7 0 2 13 21 29 18 17 36 26 39
20 15 -23 100 91 144 191 16 36 36 75 44 88 8 12 12 25 9 28 -2 3 -15 -11 -27
-31z"/>
<path d="M7837 10393 c-42 -72 -87 -165 -87 -182 0 -11 -4 -21 -10 -21 -13 0
-13 0 6 51 9 24 20 58 25 74 l8 30 -18 -22 c-18 -21 -50 -116 -66 -193 -4 -19
-11 -51 -15 -70 -26 -120 -41 -194 -50 -260 -7 -41 -16 -102 -21 -135 -23
-157 -32 -716 -11 -737 6 -6 12 -27 12 -45 0 -27 5 -34 25 -39 14 -4 24 -11
22 -18 -5 -13 17 -60 44 -95 22 -28 24 -21 5 17 -7 15 -19 58 -26 97 -11 57
-15 65 -22 46 -4 -13 -6 -27 -2 -32 3 -5 1 -9 -5 -9 -6 0 -13 16 -17 35 -3 19
-10 35 -15 35 -5 0 -9 7 -9 15 0 8 5 15 10 15 6 0 10 7 10 15 0 8 7 15 15 15
19 0 19 22 0 105 -9 37 -14 72 -12 78 2 6 11 -22 21 -62 10 -41 23 -89 30
-108 l12 -34 11 41 c6 22 8 38 5 35 -12 -12 -27 79 -17 102 9 21 11 20 21 -15
10 -29 12 -32 12 -12 1 147 24 530 37 588 8 40 15 91 15 112 0 21 4 50 10 65
5 14 14 54 20 89 11 68 79 297 100 336 9 16 9 20 0 15 -15 -9 -60 -109 -60
-134 0 -11 -5 -23 -10 -26 -6 -4 -8 -10 -5 -14 2 -5 -4 -19 -15 -31 -11 -13
-20 -29 -20 -36 0 -8 -6 -11 -15 -8 -10 4 -15 0 -16 -12 0 -18 -1 -18 -8 0 -7
18 -9 16 -24 -14 -9 -18 -17 -41 -17 -51 0 -10 -4 -21 -10 -24 -5 -3 -10 -2
-10 4 0 5 -3 16 -6 25 -3 8 3 22 15 33 25 21 27 33 6 33 -8 0 -12 6 -9 15 3 8
11 13 17 12 5 -1 14 16 19 38 11 53 47 144 70 177 11 16 16 32 13 38 -3 5 -1
10 4 10 6 0 11 7 11 16 0 8 4 12 10 9 6 -3 7 1 4 9 -7 18 -11 20 -17 9z"/>
<path d="M14384 10352 c8 -13 -18 -45 -28 -34 -4 3 -4 -1 -1 -10 4 -9 2 -19
-4 -23 -7 -4 -11 3 -12 17 0 23 0 23 -11 -2 -38 -84 -62 -130 -70 -130 -4 0
-8 -6 -8 -14 0 -8 -3 -16 -7 -18 -23 -9 -94 -101 -89 -114 3 -8 0 -14 -6 -14
-6 0 -21 -11 -34 -25 -13 -14 -19 -25 -15 -25 4 0 16 9 26 20 10 11 27 22 39
26 11 3 29 13 39 22 10 9 26 17 35 18 9 2 -10 -23 -43 -54 -77 -72 -113 -102
-124 -102 -19 0 -70 -51 -65 -65 8 -19 41 1 48 28 2 10 9 16 15 13 21 -14 152
107 216 199 11 16 28 37 37 47 15 14 48 81 48 94 0 2 -5 4 -12 4 -6 0 -8 -3
-5 -6 7 -7 -65 -115 -89 -135 -11 -9 -14 -8 -14 5 0 9 3 15 8 14 4 -2 9 2 11
7 3 6 9 15 15 21 20 21 69 109 71 126 1 10 9 26 18 36 9 10 17 26 17 34 0 9 5
18 11 20 7 2 4 10 -7 18 -11 9 -15 10 -10 2z"/>
<path d="M6834 9910 c-27 -18 -34 -30 -43 -83 -16 -87 -20 -158 -11 -182 8
-19 9 -19 11 3 2 26 3 30 16 61 8 22 11 17 16 -36 9 -82 15 -97 33 -78 8 7 14
18 14 24 0 6 7 11 15 11 22 0 18 29 -15 120 -45 123 -35 120 14 -5 40 -100 44
-107 50 -78 5 21 -1 52 -17 100 -17 47 -21 70 -13 70 7 0 12 -9 12 -20 -1 -11
6 -21 17 -22 20 -4 22 17 6 66 -24 70 -52 83 -105 49z"/>
<path d="M9120 9373 c-2 -226 -2 -231 12 -257 9 -16 12 -18 16 -6 3 8 10 18
16 22 8 5 7 8 -1 8 -7 0 -13 5 -13 11 0 5 5 7 10 4 12 -7 12 3 9 145 -2 58 -3
122 -3 143 -1 43 -13 49 -19 10 -2 -16 -5 0 -6 35 0 34 -5 62 -10 62 -6 0 -10
-75 -11 -177z"/>
<path d="M8043 9460 c-9 -81 -25 -92 -34 -23 -3 27 -7 41 -8 33 -8 -48 -12
-123 -14 -271 -1 -123 -6 -170 -16 -182 -8 -10 -11 -27 -7 -42 4 -17 2 -25 -6
-25 -9 0 -8 -3 2 -10 12 -8 12 -10 1 -10 -8 0 -11 -7 -8 -20 3 -11 2 -18 -2
-16 -4 3 -15 -23 -24 -57 -24 -84 -44 -127 -60 -127 -19 0 -58 30 -52 41 4 5
2 9 -2 9 -5 0 -20 29 -33 65 -13 35 -26 62 -28 60 -9 -9 31 -111 64 -162 35
-55 34 -64 -4 -37 -14 10 -27 12 -38 6 -13 -7 -12 -13 12 -43 27 -33 27 -33 2
-11 -14 13 -32 22 -39 20 -8 -2 -14 4 -13 12 1 9 -7 16 -17 16 -11 0 -19 -4
-19 -8 0 -4 5 -8 11 -8 6 0 9 -7 5 -15 -12 -31 84 -94 148 -97 48 -1 79 14
128 64 67 69 119 244 136 458 11 149 6 269 -12 287 -4 5 -6 1 -4 -7 2 -8 -3
-14 -9 -13 -9 2 -11 -7 -8 -30 5 -26 4 -29 -5 -12 -7 15 -9 -8 -7 -82 2 -57 0
-103 -4 -103 -15 0 -21 111 -15 255 6 152 -6 204 -21 85z"/>
<path d="M4781 8883 c-1 -39 -3 -42 -28 -40 l-28 2 -12 -170 c-14 -210 -9
-379 12 -411 9 -14 30 -26 52 -30 33 -6 40 -4 66 26 23 26 28 39 23 64 -3 17
-6 88 -8 158 -1 71 -5 122 -10 115 -4 -6 -8 18 -8 54 0 52 -4 72 -21 93 -16
20 -24 49 -29 104 -5 49 -8 62 -9 35z"/>
</g>
</svg>
